<mxfile host="Electron" agent="Mozilla/5.0 (Windows NT 10.0; Win64; x64) AppleWebKit/537.36 (KHTML, like Gecko) draw.io/26.2.2 Chrome/134.0.6998.178 Electron/35.1.2 Safari/537.36" version="26.2.2">
  <diagram name="Page-1" id="7sSLmMFJaHuQ6tAzT1x7">
    <mxGraphModel dx="1108" dy="815" grid="1" gridSize="10" guides="1" tooltips="1" connect="1" arrows="1" fold="1" page="1" pageScale="1" pageWidth="1600" pageHeight="1200" math="0" shadow="0">
      <root>
        <mxCell id="0" />
        <mxCell id="1" parent="0" />
        <mxCell id="eIjLj69JQZoWPm4z3Lqr-1" value="" style="rounded=0;whiteSpace=wrap;html=1;fillColor=none;dashed=1;" parent="1" vertex="1">
          <mxGeometry x="70" y="160" width="170" height="450" as="geometry" />
        </mxCell>
        <mxCell id="eIjLj69JQZoWPm4z3Lqr-2" value="SOURCE" style="rounded=0;whiteSpace=wrap;html=1;fontStyle=1" parent="1" vertex="1">
          <mxGeometry x="95" y="130" width="120" height="60" as="geometry" />
        </mxCell>
        <mxCell id="eIjLj69JQZoWPm4z3Lqr-14" style="edgeStyle=orthogonalEdgeStyle;rounded=0;orthogonalLoop=1;jettySize=auto;html=1;entryX=0;entryY=0.25;entryDx=0;entryDy=0;" parent="1" source="eIjLj69JQZoWPm4z3Lqr-3" target="eIjLj69JQZoWPm4z3Lqr-8" edge="1">
          <mxGeometry relative="1" as="geometry">
            <Array as="points">
              <mxPoint x="310" y="290" />
            </Array>
          </mxGeometry>
        </mxCell>
        <mxCell id="eIjLj69JQZoWPm4z3Lqr-16" style="edgeStyle=orthogonalEdgeStyle;rounded=0;orthogonalLoop=1;jettySize=auto;html=1;entryX=0;entryY=0.5;entryDx=0;entryDy=0;" parent="1" source="eIjLj69JQZoWPm4z3Lqr-3" target="eIjLj69JQZoWPm4z3Lqr-7" edge="1">
          <mxGeometry relative="1" as="geometry">
            <Array as="points">
              <mxPoint x="253" y="290" />
              <mxPoint x="253" y="253" />
            </Array>
          </mxGeometry>
        </mxCell>
        <mxCell id="eIjLj69JQZoWPm4z3Lqr-17" style="edgeStyle=orthogonalEdgeStyle;rounded=0;orthogonalLoop=1;jettySize=auto;html=1;entryX=0;entryY=0.25;entryDx=0;entryDy=0;" parent="1" source="eIjLj69JQZoWPm4z3Lqr-3" target="eIjLj69JQZoWPm4z3Lqr-9" edge="1">
          <mxGeometry relative="1" as="geometry">
            <Array as="points">
              <mxPoint x="253" y="290" />
              <mxPoint x="253" y="339" />
            </Array>
          </mxGeometry>
        </mxCell>
        <mxCell id="eIjLj69JQZoWPm4z3Lqr-3" value="&lt;b&gt;CRM&lt;/b&gt;" style="image;aspect=fixed;html=1;points=[];align=center;fontSize=12;image=img/lib/azure2/general/Folder_Blank.svg;" parent="1" vertex="1">
          <mxGeometry x="126" y="250" width="69" height="56.00000000000001" as="geometry" />
        </mxCell>
        <mxCell id="eIjLj69JQZoWPm4z3Lqr-15" style="edgeStyle=orthogonalEdgeStyle;rounded=0;orthogonalLoop=1;jettySize=auto;html=1;" parent="1" source="eIjLj69JQZoWPm4z3Lqr-4" target="eIjLj69JQZoWPm4z3Lqr-12" edge="1">
          <mxGeometry relative="1" as="geometry" />
        </mxCell>
        <mxCell id="eIjLj69JQZoWPm4z3Lqr-18" style="edgeStyle=orthogonalEdgeStyle;rounded=0;orthogonalLoop=1;jettySize=auto;html=1;entryX=0;entryY=0.5;entryDx=0;entryDy=0;" parent="1" source="eIjLj69JQZoWPm4z3Lqr-4" target="eIjLj69JQZoWPm4z3Lqr-11" edge="1">
          <mxGeometry relative="1" as="geometry" />
        </mxCell>
        <mxCell id="eIjLj69JQZoWPm4z3Lqr-19" style="edgeStyle=orthogonalEdgeStyle;rounded=0;orthogonalLoop=1;jettySize=auto;html=1;entryX=0;entryY=0.5;entryDx=0;entryDy=0;" parent="1" source="eIjLj69JQZoWPm4z3Lqr-4" target="eIjLj69JQZoWPm4z3Lqr-10" edge="1">
          <mxGeometry relative="1" as="geometry" />
        </mxCell>
        <mxCell id="eIjLj69JQZoWPm4z3Lqr-4" value="&lt;b&gt;ERP&lt;/b&gt;" style="image;aspect=fixed;html=1;points=[];align=center;fontSize=12;image=img/lib/azure2/general/Folder_Blank.svg;" parent="1" vertex="1">
          <mxGeometry x="126" y="449" width="69" height="56.00000000000001" as="geometry" />
        </mxCell>
        <mxCell id="eIjLj69JQZoWPm4z3Lqr-5" value="" style="rounded=1;whiteSpace=wrap;html=1;fillColor=none;strokeColor=#d79b00;" parent="1" vertex="1">
          <mxGeometry x="300" y="200" width="200" height="410" as="geometry" />
        </mxCell>
        <mxCell id="eIjLj69JQZoWPm4z3Lqr-6" value="&lt;b&gt;BRONZE LAYER&lt;/b&gt;" style="rounded=1;whiteSpace=wrap;html=1;fillColor=#ffe6cc;strokeColor=#d79b00;" parent="1" vertex="1">
          <mxGeometry x="300" y="150" width="200" height="40" as="geometry" />
        </mxCell>
        <mxCell id="XMCpwq_o3yDHEf5gcKCW-12" style="edgeStyle=orthogonalEdgeStyle;rounded=0;orthogonalLoop=1;jettySize=auto;html=1;exitX=1;exitY=0.5;exitDx=0;exitDy=0;entryX=0;entryY=0.5;entryDx=0;entryDy=0;" parent="1" source="eIjLj69JQZoWPm4z3Lqr-7" target="XMCpwq_o3yDHEf5gcKCW-4" edge="1">
          <mxGeometry relative="1" as="geometry" />
        </mxCell>
        <mxCell id="eIjLj69JQZoWPm4z3Lqr-7" value="Crm_sales_details" style="rounded=1;whiteSpace=wrap;html=1;fillColor=#ffe6cc;strokeColor=#d79b00;" parent="1" vertex="1">
          <mxGeometry x="310" y="236" width="180" height="34" as="geometry" />
        </mxCell>
        <mxCell id="XMCpwq_o3yDHEf5gcKCW-11" style="edgeStyle=orthogonalEdgeStyle;rounded=0;orthogonalLoop=1;jettySize=auto;html=1;exitX=1;exitY=0.5;exitDx=0;exitDy=0;" parent="1" source="eIjLj69JQZoWPm4z3Lqr-8" target="XMCpwq_o3yDHEf5gcKCW-5" edge="1">
          <mxGeometry relative="1" as="geometry" />
        </mxCell>
        <mxCell id="eIjLj69JQZoWPm4z3Lqr-8" value="crm_cust_info" style="rounded=1;whiteSpace=wrap;html=1;fillColor=#ffe6cc;strokeColor=#d79b00;" parent="1" vertex="1">
          <mxGeometry x="310" y="280" width="180" height="34" as="geometry" />
        </mxCell>
        <mxCell id="XMCpwq_o3yDHEf5gcKCW-13" style="edgeStyle=orthogonalEdgeStyle;rounded=0;orthogonalLoop=1;jettySize=auto;html=1;exitX=1;exitY=0.5;exitDx=0;exitDy=0;entryX=0;entryY=0.5;entryDx=0;entryDy=0;" parent="1" source="eIjLj69JQZoWPm4z3Lqr-9" target="XMCpwq_o3yDHEf5gcKCW-6" edge="1">
          <mxGeometry relative="1" as="geometry" />
        </mxCell>
        <mxCell id="eIjLj69JQZoWPm4z3Lqr-9" value="crm_prd_info" style="rounded=1;whiteSpace=wrap;html=1;fillColor=#ffe6cc;strokeColor=#d79b00;" parent="1" vertex="1">
          <mxGeometry x="310" y="330" width="180" height="34" as="geometry" />
        </mxCell>
        <mxCell id="XMCpwq_o3yDHEf5gcKCW-16" style="edgeStyle=orthogonalEdgeStyle;rounded=0;orthogonalLoop=1;jettySize=auto;html=1;exitX=1;exitY=0.5;exitDx=0;exitDy=0;entryX=0;entryY=0.5;entryDx=0;entryDy=0;" parent="1" source="eIjLj69JQZoWPm4z3Lqr-10" target="XMCpwq_o3yDHEf5gcKCW-7" edge="1">
          <mxGeometry relative="1" as="geometry" />
        </mxCell>
        <mxCell id="eIjLj69JQZoWPm4z3Lqr-10" value="erp_px_cat_g1v2" style="rounded=1;whiteSpace=wrap;html=1;fillColor=#ffe6cc;strokeColor=#d79b00;" parent="1" vertex="1">
          <mxGeometry x="310" y="510" width="180" height="34" as="geometry" />
        </mxCell>
        <mxCell id="XMCpwq_o3yDHEf5gcKCW-14" style="edgeStyle=orthogonalEdgeStyle;rounded=0;orthogonalLoop=1;jettySize=auto;html=1;exitX=1;exitY=0.5;exitDx=0;exitDy=0;" parent="1" source="eIjLj69JQZoWPm4z3Lqr-11" target="XMCpwq_o3yDHEf5gcKCW-8" edge="1">
          <mxGeometry relative="1" as="geometry" />
        </mxCell>
        <mxCell id="eIjLj69JQZoWPm4z3Lqr-11" value="erp_cust_az12" style="rounded=1;whiteSpace=wrap;html=1;fillColor=#ffe6cc;strokeColor=#d79b00;" parent="1" vertex="1">
          <mxGeometry x="310" y="410" width="180" height="34" as="geometry" />
        </mxCell>
        <mxCell id="XMCpwq_o3yDHEf5gcKCW-15" style="edgeStyle=orthogonalEdgeStyle;rounded=0;orthogonalLoop=1;jettySize=auto;html=1;exitX=1;exitY=0.5;exitDx=0;exitDy=0;" parent="1" source="eIjLj69JQZoWPm4z3Lqr-12" target="XMCpwq_o3yDHEf5gcKCW-9" edge="1">
          <mxGeometry relative="1" as="geometry" />
        </mxCell>
        <mxCell id="eIjLj69JQZoWPm4z3Lqr-12" value="erp_loc_a101" style="rounded=1;whiteSpace=wrap;html=1;fillColor=#ffe6cc;strokeColor=#d79b00;" parent="1" vertex="1">
          <mxGeometry x="310" y="460" width="180" height="34" as="geometry" />
        </mxCell>
        <mxCell id="XMCpwq_o3yDHEf5gcKCW-2" value="" style="rounded=1;whiteSpace=wrap;html=1;fillColor=none;strokeColor=#666666;fontColor=#333333;" parent="1" vertex="1">
          <mxGeometry x="530" y="200" width="200" height="410" as="geometry" />
        </mxCell>
        <mxCell id="XMCpwq_o3yDHEf5gcKCW-3" value="&lt;b&gt;SILVER LAYER&lt;/b&gt;" style="rounded=1;whiteSpace=wrap;html=1;fillColor=#f5f5f5;strokeColor=#666666;fontColor=#333333;" parent="1" vertex="1">
          <mxGeometry x="530" y="150" width="200" height="40" as="geometry" />
        </mxCell>
        <mxCell id="XMCpwq_o3yDHEf5gcKCW-4" value="Crm_sales_details" style="rounded=1;whiteSpace=wrap;html=1;fillColor=#f5f5f5;strokeColor=#666666;fontColor=#333333;" parent="1" vertex="1">
          <mxGeometry x="540" y="236" width="180" height="34" as="geometry" />
        </mxCell>
        <mxCell id="XMCpwq_o3yDHEf5gcKCW-5" value="crm_cust_info" style="rounded=1;whiteSpace=wrap;html=1;fillColor=#f5f5f5;strokeColor=#666666;fontColor=#333333;" parent="1" vertex="1">
          <mxGeometry x="540" y="280" width="180" height="34" as="geometry" />
        </mxCell>
        <mxCell id="XMCpwq_o3yDHEf5gcKCW-6" value="crm_prd_info" style="rounded=1;whiteSpace=wrap;html=1;fillColor=#f5f5f5;strokeColor=#666666;fontColor=#333333;" parent="1" vertex="1">
          <mxGeometry x="540" y="330" width="180" height="34" as="geometry" />
        </mxCell>
        <mxCell id="XMCpwq_o3yDHEf5gcKCW-7" value="erp_px_cat_g1v2" style="rounded=1;whiteSpace=wrap;html=1;fillColor=#f5f5f5;strokeColor=#666666;fontColor=#333333;" parent="1" vertex="1">
          <mxGeometry x="540" y="510" width="180" height="34" as="geometry" />
        </mxCell>
        <mxCell id="XMCpwq_o3yDHEf5gcKCW-8" value="erp_cust_az12" style="rounded=1;whiteSpace=wrap;html=1;fillColor=#f5f5f5;strokeColor=#666666;fontColor=#333333;" parent="1" vertex="1">
          <mxGeometry x="540" y="410" width="180" height="34" as="geometry" />
        </mxCell>
        <mxCell id="XMCpwq_o3yDHEf5gcKCW-9" value="erp_loc_a101" style="rounded=1;whiteSpace=wrap;html=1;fillColor=#f5f5f5;strokeColor=#666666;fontColor=#333333;" parent="1" vertex="1">
          <mxGeometry x="540" y="460" width="180" height="34" as="geometry" />
        </mxCell>
        <mxCell id="btmKtqVnSDdHkqPKGyl9-1" value="" style="rounded=1;whiteSpace=wrap;html=1;fillColor=none;strokeColor=#d6b656;" vertex="1" parent="1">
          <mxGeometry x="800" y="200" width="200" height="410" as="geometry" />
        </mxCell>
        <mxCell id="btmKtqVnSDdHkqPKGyl9-2" value="&lt;b&gt;SILVER LAYER&lt;/b&gt;" style="rounded=1;whiteSpace=wrap;html=1;fillColor=#fff2cc;strokeColor=#d6b656;" vertex="1" parent="1">
          <mxGeometry x="800" y="150" width="200" height="40" as="geometry" />
        </mxCell>
        <mxCell id="btmKtqVnSDdHkqPKGyl9-3" value="fact_sales" style="rounded=1;whiteSpace=wrap;html=1;fillColor=#fff2cc;strokeColor=#d6b656;" vertex="1" parent="1">
          <mxGeometry x="810" y="236" width="180" height="34" as="geometry" />
        </mxCell>
        <mxCell id="btmKtqVnSDdHkqPKGyl9-4" value="dim_customers" style="rounded=1;whiteSpace=wrap;html=1;fillColor=#fff2cc;strokeColor=#d6b656;" vertex="1" parent="1">
          <mxGeometry x="810" y="376" width="180" height="34" as="geometry" />
        </mxCell>
        <mxCell id="btmKtqVnSDdHkqPKGyl9-5" value="dim_products" style="rounded=1;whiteSpace=wrap;html=1;fillColor=#fff2cc;strokeColor=#d6b656;" vertex="1" parent="1">
          <mxGeometry x="810" y="471" width="180" height="34" as="geometry" />
        </mxCell>
        <mxCell id="btmKtqVnSDdHkqPKGyl9-15" value="" style="endArrow=classic;html=1;rounded=0;" edge="1" parent="1">
          <mxGeometry width="50" height="50" relative="1" as="geometry">
            <mxPoint x="600" y="400" as="sourcePoint" />
            <mxPoint x="590" y="390" as="targetPoint" />
          </mxGeometry>
        </mxCell>
        <mxCell id="btmKtqVnSDdHkqPKGyl9-16" value="" style="endArrow=classic;html=1;rounded=0;entryX=0;entryY=0.5;entryDx=0;entryDy=0;exitX=1;exitY=0.5;exitDx=0;exitDy=0;" edge="1" parent="1" source="XMCpwq_o3yDHEf5gcKCW-4" target="btmKtqVnSDdHkqPKGyl9-3">
          <mxGeometry width="50" height="50" relative="1" as="geometry">
            <mxPoint x="540" y="440" as="sourcePoint" />
            <mxPoint x="590" y="390" as="targetPoint" />
          </mxGeometry>
        </mxCell>
        <mxCell id="btmKtqVnSDdHkqPKGyl9-17" value="" style="endArrow=classic;html=1;rounded=0;entryX=0;entryY=0.5;entryDx=0;entryDy=0;exitX=1;exitY=0.5;exitDx=0;exitDy=0;jumpStyle=gap;" edge="1" parent="1" source="XMCpwq_o3yDHEf5gcKCW-5" target="btmKtqVnSDdHkqPKGyl9-4">
          <mxGeometry width="50" height="50" relative="1" as="geometry">
            <mxPoint x="730" y="263" as="sourcePoint" />
            <mxPoint x="820" y="316" as="targetPoint" />
          </mxGeometry>
        </mxCell>
        <mxCell id="btmKtqVnSDdHkqPKGyl9-20" value="" style="endArrow=classic;html=1;rounded=0;entryX=0;entryY=0.5;entryDx=0;entryDy=0;exitX=1;exitY=0.5;exitDx=0;exitDy=0;jumpStyle=gap;" edge="1" parent="1" source="XMCpwq_o3yDHEf5gcKCW-6" target="btmKtqVnSDdHkqPKGyl9-5">
          <mxGeometry width="50" height="50" relative="1" as="geometry">
            <mxPoint x="730" y="307" as="sourcePoint" />
            <mxPoint x="820" y="403" as="targetPoint" />
          </mxGeometry>
        </mxCell>
        <mxCell id="btmKtqVnSDdHkqPKGyl9-21" value="" style="endArrow=classic;html=1;rounded=0;exitX=1;exitY=0.5;exitDx=0;exitDy=0;entryX=0;entryY=0.5;entryDx=0;entryDy=0;jumpStyle=gap;" edge="1" parent="1" source="XMCpwq_o3yDHEf5gcKCW-7" target="btmKtqVnSDdHkqPKGyl9-5">
          <mxGeometry width="50" height="50" relative="1" as="geometry">
            <mxPoint x="730" y="357" as="sourcePoint" />
            <mxPoint x="780" y="498" as="targetPoint" />
          </mxGeometry>
        </mxCell>
        <mxCell id="btmKtqVnSDdHkqPKGyl9-22" value="" style="endArrow=classic;html=1;rounded=0;entryX=0;entryY=0.5;entryDx=0;entryDy=0;exitX=1;exitY=0.5;exitDx=0;exitDy=0;jumpStyle=gap;" edge="1" parent="1" source="XMCpwq_o3yDHEf5gcKCW-8" target="btmKtqVnSDdHkqPKGyl9-4">
          <mxGeometry width="50" height="50" relative="1" as="geometry">
            <mxPoint x="730" y="490" as="sourcePoint" />
            <mxPoint x="780" y="440" as="targetPoint" />
          </mxGeometry>
        </mxCell>
        <mxCell id="btmKtqVnSDdHkqPKGyl9-23" value="" style="endArrow=classic;html=1;rounded=0;exitX=1;exitY=0.5;exitDx=0;exitDy=0;jumpStyle=gap;" edge="1" parent="1" source="XMCpwq_o3yDHEf5gcKCW-9">
          <mxGeometry width="50" height="50" relative="1" as="geometry">
            <mxPoint x="740" y="490" as="sourcePoint" />
            <mxPoint x="810" y="400" as="targetPoint" />
          </mxGeometry>
        </mxCell>
      </root>
    </mxGraphModel>
  </diagram>
</mxfile>
